<svg width="17" height="17" viewBox="0 0 17 17" fill="none" xmlns="http://www.w3.org/2000/svg">
<path d="M15.069 1H2.37931C1.61754 1 1 1.60864 1 2.35943V15.0968C1 15.8476 1.61754 16.4562 2.37931 16.4562H15.069C15.8307 16.4562 16.4483 15.8476 16.4483 15.0968V2.35943C16.4483 1.60864 15.8307 1 15.069 1Z" fill="#EC2027" stroke="#EC2027"/>
<path d="M6.79053 13.5054C7.0249 13.7397 7.42334 13.7397 7.65771 13.5054L14.5483 6.61475C14.7827 6.38037 14.7827 5.98193 14.5483 5.74756L13.7046 4.90381C13.4702 4.66943 13.0952 4.66943 12.8608 4.90381L7.23584 10.5288L4.5874 7.90381C4.35303 7.66943 3.97803 7.66943 3.74365 7.90381L2.8999 8.74756C2.66553 8.98193 2.66553 9.38037 2.8999 9.61475L6.79053 13.5054Z" fill="white"/>
</svg>
