<svg width="16" height="16" viewBox="0 0 16 16" fill="none" xmlns="http://www.w3.org/2000/svg">
<g clip-path="url(#clip0_8077_28972)">
<path d="M8.0001 1.14307C6.7343 1.14307 5.49693 1.54523 4.44445 2.2987C3.39198 3.05218 2.57167 4.12312 2.08727 5.37609C1.60287 6.62907 1.47613 8.00782 1.72307 9.33797C1.97002 10.6681 2.57956 11.89 3.47462 12.8489C4.36967 13.8079 5.51004 14.461 6.75152 14.7256C7.993 14.9902 9.27983 14.8544 10.4493 14.3354C11.6187 13.8164 12.6183 12.9375 13.3215 11.8098C14.0247 10.6822 14.4001 9.35642 14.4001 8.00021C14.4001 6.18158 13.7258 4.43744 12.5256 3.15148C11.3254 1.86551 9.69749 1.14307 8.0001 1.14307ZM8.0001 13.7145C6.94527 13.7145 5.91412 13.3794 5.03706 12.7515C4.16 12.1236 3.47641 11.2311 3.07274 10.187C2.66908 9.14282 2.56346 7.99387 2.76925 6.88541C2.97503 5.77694 3.48298 4.75876 4.22886 3.9596C4.97474 3.16044 5.92505 2.61621 6.95962 2.39572C7.99418 2.17523 9.06654 2.2884 10.0411 2.7209C11.0156 3.1534 11.8486 3.88581 12.4346 4.82552C13.0206 5.76523 13.3334 6.87003 13.3334 8.00021C13.3334 8.75062 13.1955 9.49368 12.9275 10.187C12.6594 10.8803 12.2666 11.5102 11.7713 12.0408C11.2761 12.5714 10.6881 12.9924 10.0411 13.2795C9.39401 13.5667 8.70048 13.7145 8.0001 13.7145Z" fill="#EC2027"/>
<path d="M7.99997 9.18284C7.81609 9.18284 7.63974 9.10458 7.50971 8.96526C7.37969 8.82595 7.30664 8.637 7.30664 8.43998V5.01141C7.30664 4.81439 7.37969 4.62545 7.50971 4.48613C7.63974 4.34682 7.81609 4.26855 7.99997 4.26855C8.18386 4.26855 8.36021 4.34682 8.49023 4.48613C8.62026 4.62545 8.69331 4.81439 8.69331 5.01141V8.43998C8.69331 8.637 8.62026 8.82595 8.49023 8.96526C8.36021 9.10458 8.18386 9.18284 7.99997 9.18284Z" fill="#EC2027"/>
<path d="M7.97334 11.7255C8.41517 11.7255 8.77334 11.3418 8.77334 10.8684C8.77334 10.395 8.41517 10.0112 7.97334 10.0112C7.53151 10.0112 7.17334 10.395 7.17334 10.8684C7.17334 11.3418 7.53151 11.7255 7.97334 11.7255Z" fill="#EC2027"/>
</g>
<defs>
<clipPath id="clip0_8077_28972">
<rect width="16" height="16" fill="white"/>
</clipPath>
</defs>
</svg>
