<svg width="24" height="19" viewBox="0 0 24 19" fill="none" xmlns="http://www.w3.org/2000/svg">
<path d="M5.0529 0.731772C4.9174 0.590015 4.73177 0.506966 4.53578 0.500419C4.33979 0.493871 4.14903 0.564347 4.00437 0.696746C3.85971 0.829145 3.77266 1.01293 3.76187 1.20874C3.75109 1.40454 3.81741 1.59678 3.94665 1.74427L5.74665 3.7224C2.34352 5.81302 0.881025 9.03802 0.8154 9.18802C0.773866 9.28423 0.752441 9.38792 0.752441 9.49271C0.752441 9.5975 0.773866 9.70119 0.8154 9.7974C0.843525 9.86302 1.6404 11.6255 3.4029 13.3974C5.75602 15.7411 8.7279 16.988 11.9998 16.988C13.6807 16.9947 15.3444 16.6498 16.8842 15.9755L18.9467 18.2443C19.0169 18.3211 19.1023 18.3824 19.1976 18.4243C19.2928 18.4663 19.3957 18.488 19.4998 18.488C19.6869 18.4862 19.8669 18.4162 20.006 18.2911C20.0797 18.2253 20.1396 18.1455 20.1819 18.0562C20.2243 17.9669 20.2484 17.8701 20.2528 17.7713C20.2571 17.6726 20.2417 17.574 20.2074 17.4814C20.173 17.3887 20.1205 17.3038 20.0529 17.2318L5.0529 0.731772ZM9.48727 7.8474L13.3966 12.1411C12.9666 12.3698 12.4868 12.489 11.9998 12.488C11.4591 12.4882 10.9284 12.3422 10.4639 12.0655C9.99933 11.7889 9.61819 11.3918 9.36076 10.9164C9.10334 10.4409 8.97919 9.90468 9.00146 9.36446C9.02373 8.82423 9.19159 8.30007 9.48727 7.8474ZM11.9998 15.488C9.11228 15.488 6.5904 14.438 4.50915 12.3661C3.64691 11.5209 2.91685 10.5507 2.34352 9.48802C2.78415 8.66302 4.19978 6.3474 6.7779 4.85677L8.4654 6.71302C7.81494 7.54954 7.48054 8.58877 7.52112 9.64765C7.5617 10.7065 7.97465 11.7171 8.68723 12.5014C9.39981 13.2857 10.3663 13.7933 11.4164 13.935C12.4666 14.0766 13.533 13.843 14.4279 13.2755L15.806 14.7943C14.5911 15.2591 13.3005 15.4943 11.9998 15.488ZM23.1842 9.7974C23.1467 9.88177 22.1998 11.9818 20.0529 13.9036C19.9152 14.0239 19.7388 14.0905 19.556 14.0911C19.4509 14.0924 19.3467 14.0703 19.2511 14.0266C19.1555 13.9828 19.0707 13.9184 19.0029 13.838C18.937 13.7648 18.8862 13.6793 18.8534 13.5864C18.8205 13.4935 18.8063 13.3951 18.8116 13.2967C18.8168 13.1983 18.8413 13.1019 18.8838 13.013C18.9263 12.9241 18.9859 12.8445 19.0592 12.7786C20.107 11.8387 20.9854 10.7256 21.656 9.48802C21.0811 8.4236 20.3513 7.45048 19.4904 6.60052C17.4091 4.53802 14.8873 3.48802 11.9998 3.48802C11.3903 3.48557 10.7818 3.53575 10.181 3.63802C9.98493 3.66798 9.78489 3.62001 9.62371 3.50438C9.46252 3.38874 9.35299 3.21463 9.31852 3.01927C9.30244 2.922 9.30569 2.82252 9.32809 2.72651C9.35049 2.63049 9.3916 2.53984 9.44907 2.45973C9.50654 2.37963 9.57924 2.31163 9.66301 2.25965C9.74678 2.20766 9.83998 2.1727 9.93727 2.15677C10.6189 2.04321 11.3088 1.98676 11.9998 1.98802C15.2717 1.98802 18.2435 3.2349 20.5966 5.57865C22.3591 7.35052 23.156 9.11302 23.1842 9.18802C23.2257 9.28423 23.2471 9.38792 23.2471 9.49271C23.2471 9.5975 23.2257 9.70119 23.1842 9.7974ZM12.5623 6.54427C12.465 6.5258 12.3723 6.48836 12.2896 6.43408C12.2068 6.3798 12.1355 6.30974 12.0798 6.22791C11.9672 6.06264 11.925 5.85945 11.9623 5.66302C11.9996 5.4666 12.1134 5.29303 12.2786 5.18051C12.4439 5.06799 12.6471 5.02573 12.8435 5.06302C13.7999 5.25006 14.6703 5.7406 15.3257 6.46179C15.981 7.18298 16.3862 8.09633 16.481 9.06615C16.4993 9.26374 16.4385 9.46052 16.312 9.61339C16.1855 9.76627 16.0035 9.86277 15.806 9.88177H15.731C15.5455 9.8825 15.3664 9.81354 15.2292 9.68854C15.0921 9.56354 15.0068 9.39161 14.9904 9.20677C14.9257 8.56091 14.6546 7.9531 14.2172 7.47349C13.7798 6.99389 13.1995 6.66804 12.5623 6.54427Z" fill="#ADADAD"/>
</svg>
