<svg width="24" height="24" viewBox="0 0 24 24" fill="none" xmlns="http://www.w3.org/2000/svg">
<path d="M9.60156 7.2C9.60156 6.88174 9.72799 6.57652 9.95303 6.35147C10.1781 6.12643 10.4833 6 10.8016 6C11.1198 6 11.425 6.12643 11.6501 6.35147C11.8751 6.57652 12.0016 6.88174 12.0016 7.2V12.564L13.4536 12.72L19.3816 15.348C20.0176 15.636 20.4016 16.272 20.4016 16.968V22.2C20.3656 23.184 19.5856 23.964 18.6016 24H10.8016C10.3456 24 9.91356 23.82 9.60156 23.484L3.72156 18.444L4.60956 17.52C4.83756 17.268 5.16156 17.136 5.49756 17.136H5.76156L9.60156 19.2V7.2ZM10.8016 2.4C12.0746 2.4 13.2955 2.90571 14.1957 3.80589C15.0958 4.70606 15.6016 5.92696 15.6016 7.2C15.6016 9 14.6416 10.524 13.2016 11.352V9.888C13.9336 9.228 14.4016 8.268 14.4016 7.2C14.4016 6.24522 14.0223 5.32955 13.3471 4.65442C12.672 3.97929 11.7563 3.6 10.8016 3.6C9.84678 3.6 8.93111 3.97929 8.25598 4.65442C7.58085 5.32955 7.20156 6.24522 7.20156 7.2C7.20156 8.268 7.66956 9.228 8.40156 9.888V11.352C6.96156 10.524 6.00156 9 6.00156 7.2C6.00156 5.92696 6.50727 4.70606 7.40745 3.80589C8.30762 2.90571 9.52852 2.4 10.8016 2.4ZM10.8016 0C12.7111 0 14.5425 0.75857 15.8927 2.10883C17.243 3.45909 18.0016 5.29044 18.0016 7.2C18.0016 9.24 17.1496 11.076 15.7936 12.396L14.5936 11.856C15.2831 11.2916 15.8388 10.5812 16.2207 9.77606C16.6025 8.97092 16.8009 8.09109 16.8016 7.2C16.8016 5.6087 16.1694 4.08258 15.0442 2.95736C13.919 1.83214 12.3929 1.2 10.8016 1.2C9.21026 1.2 7.68414 1.83214 6.55892 2.95736C5.4337 4.08258 4.80156 5.6087 4.80156 7.2C4.80156 9.66 6.27756 11.772 8.40156 12.696V13.992C5.60556 12.996 3.60156 10.332 3.60156 7.2C3.60156 5.29044 4.36013 3.45909 5.71039 2.10883C7.06066 0.75857 8.892 0 10.8016 0Z" fill="#EC2027"/>
</svg>
