<svg width="24" height="24" viewBox="0 0 24 24" fill="none" xmlns="http://www.w3.org/2000/svg">
<path d="M15.5718 6.2952V1.19002C15.5718 0.535509 15.0363 0 14.3818 0H9.62172C8.96721 0 8.4317 0.535509 8.4317 1.19002V6.2952C8.4317 6.4499 8.4912 6.60461 8.6102 6.71171L11.5852 9.68676C11.8233 9.92476 12.1922 9.92476 12.4302 9.68676L15.4052 6.71171C15.5123 6.60461 15.5718 6.46181 15.5718 6.2952ZM6.39676 8.33014H1.29158C0.637071 8.33014 0.101562 8.86564 0.101562 9.52015V14.2802C0.101562 14.9347 0.637071 15.4703 1.29158 15.4703H6.39676C6.55147 15.4703 6.70617 15.4108 6.81327 15.2917L9.78832 12.3167C10.0263 12.0787 10.0263 11.7098 9.78832 11.4718L6.81327 8.49674C6.75856 8.44246 6.69349 8.39975 6.62194 8.37113C6.55039 8.34251 6.47381 8.32857 6.39676 8.33014ZM8.4317 17.5052V22.6104C8.4317 23.2649 8.96721 23.8004 9.62172 23.8004H14.3818C15.0363 23.8004 15.5718 23.2649 15.5718 22.6104V17.5052C15.5728 17.4271 15.5574 17.3498 15.5266 17.278C15.4959 17.2063 15.4505 17.1418 15.3933 17.0887L12.4183 14.1136C12.1803 13.8756 11.8114 13.8756 11.5733 14.1136L8.5983 17.0887C8.4912 17.1958 8.4317 17.3386 8.4317 17.5052ZM17.1783 8.50864L14.2033 11.4837C13.9653 11.7217 13.9653 12.0906 14.2033 12.3286L17.1783 15.3036C17.2854 15.4108 17.4401 15.4822 17.5948 15.4822H22.7119C23.3664 15.4822 23.902 14.9466 23.902 14.2921V9.53206C23.902 8.87754 23.3664 8.34204 22.7119 8.34204H17.6067C17.5274 8.33601 17.4478 8.34784 17.3736 8.37667C17.2995 8.40551 17.2327 8.4506 17.1783 8.50864Z" fill="#EC2027"/>
</svg>
