<svg width="24" height="24" viewBox="0 0 24 24" fill="none" xmlns="http://www.w3.org/2000/svg">
<g clip-path="url(#clip0_11987_53422)">
<path d="M21.412 6.6665H2.58536C2.25296 6.6665 1.93417 6.79855 1.69912 7.0336C1.46408 7.26864 1.33203 7.58743 1.33203 7.91984V20.0798C1.33203 20.4122 1.46408 20.731 1.69912 20.9661C1.93417 21.2011 2.25296 21.3332 2.58536 21.3332H21.412C21.7444 21.3332 22.0632 21.2011 22.2983 20.9661C22.5333 20.731 22.6654 20.4122 22.6654 20.0798V7.91984C22.6654 7.58743 22.5333 7.26864 22.2983 7.0336C22.0632 6.79855 21.7444 6.6665 21.412 6.6665ZM16.1187 14.5532L9.60537 17.4598C9.50395 17.5054 9.39273 17.5249 9.28185 17.5166C9.17097 17.5082 9.06395 17.4722 8.97052 17.4119C8.8771 17.3516 8.80023 17.2689 8.74694 17.1713C8.69364 17.0737 8.6656 16.9644 8.66537 16.8532V11.0398C8.6656 10.9286 8.69364 10.8193 8.74694 10.7217C8.80023 10.6241 8.8771 10.5414 8.97052 10.4811C9.06395 10.4208 9.17097 10.3848 9.28185 10.3765C9.39273 10.3681 9.50395 10.3876 9.60537 10.4332L16.1187 13.3332C16.237 13.3853 16.3376 13.4708 16.4082 13.5791C16.4788 13.6874 16.5164 13.8139 16.5164 13.9432C16.5164 14.0725 16.4788 14.199 16.4082 14.3073C16.3376 14.4156 16.237 14.501 16.1187 14.5532Z" fill="#EC2027"/>
<path d="M20.0937 1.99967C20.0937 1.82286 20.0235 1.65329 19.8985 1.52827C19.7735 1.40325 19.6039 1.33301 19.4271 1.33301H4.76042C4.58361 1.33301 4.41404 1.40325 4.28901 1.52827C4.16399 1.65329 4.09375 1.82286 4.09375 1.99967V2.66634H20.0937V1.99967Z" fill="#EC2027"/>
<path d="M21.4167 4.66716C21.4167 4.49034 21.3464 4.32077 21.2214 4.19575C21.0964 4.07073 20.9268 4.00049 20.75 4.00049H3.41667C3.23986 4.00049 3.07029 4.07073 2.94526 4.19575C2.82024 4.32077 2.75 4.49034 2.75 4.66716V5.33382H21.4167V4.66716Z" fill="#EC2027"/>
</g>
<defs>
<clipPath id="clip0_11987_53422">
<rect width="24" height="24" fill="white"/>
</clipPath>
</defs>
</svg>
