<svg width="24" height="25" viewBox="0 0 24 25" fill="none" xmlns="http://www.w3.org/2000/svg">
<path d="M5.0529 3.73177C4.9174 3.59001 4.73177 3.50697 4.53578 3.50042C4.33979 3.49387 4.14903 3.56435 4.00437 3.69675C3.85971 3.82914 3.77266 4.01293 3.76187 4.20874C3.75109 4.40454 3.81741 4.59678 3.94665 4.74427L5.74665 6.7224C2.34352 8.81302 0.881025 12.038 0.8154 12.188C0.773866 12.2842 0.752441 12.3879 0.752441 12.4927C0.752441 12.5975 0.773866 12.7012 0.8154 12.7974C0.843525 12.863 1.6404 14.6255 3.4029 16.3974C5.75602 18.7411 8.7279 19.988 11.9998 19.988C13.6807 19.9947 15.3444 19.6498 16.8842 18.9755L18.9467 21.2443C19.0169 21.3211 19.1023 21.3824 19.1976 21.4243C19.2928 21.4663 19.3957 21.488 19.4998 21.488C19.6869 21.4862 19.8669 21.4162 20.006 21.2911C20.0797 21.2253 20.1396 21.1455 20.1819 21.0562C20.2243 20.9669 20.2484 20.8701 20.2528 20.7713C20.2571 20.6726 20.2417 20.574 20.2074 20.4814C20.173 20.3887 20.1205 20.3038 20.0529 20.2318L5.0529 3.73177ZM9.48727 10.8474L13.3966 15.1411C12.9666 15.3698 12.4868 15.489 11.9998 15.488C11.4591 15.4882 10.9284 15.3422 10.4639 15.0655C9.99933 14.7889 9.61819 14.3918 9.36076 13.9164C9.10334 13.4409 8.97919 12.9047 9.00146 12.3645C9.02373 11.8242 9.19159 11.3001 9.48727 10.8474ZM11.9998 18.488C9.11228 18.488 6.5904 17.438 4.50915 15.3661C3.64691 14.5209 2.91685 13.5507 2.34352 12.488C2.78415 11.663 4.19978 9.3474 6.7779 7.85677L8.4654 9.71302C7.81494 10.5495 7.48054 11.5888 7.52112 12.6476C7.5617 13.7065 7.97465 14.7171 8.68723 15.5014C9.39981 16.2857 10.3663 16.7933 11.4164 16.935C12.4666 17.0766 13.533 16.843 14.4279 16.2755L15.806 17.7943C14.5911 18.2591 13.3005 18.4943 11.9998 18.488ZM23.1842 12.7974C23.1467 12.8818 22.1998 14.9818 20.0529 16.9036C19.9152 17.0239 19.7388 17.0905 19.556 17.0911C19.4509 17.0924 19.3467 17.0703 19.2511 17.0266C19.1555 16.9828 19.0707 16.9184 19.0029 16.838C18.937 16.7648 18.8862 16.6793 18.8534 16.5864C18.8205 16.4935 18.8063 16.3951 18.8116 16.2967C18.8168 16.1983 18.8413 16.1019 18.8838 16.013C18.9263 15.9241 18.9859 15.8445 19.0592 15.7786C20.107 14.8387 20.9854 13.7256 21.656 12.488C21.0811 11.4236 20.3513 10.4505 19.4904 9.60052C17.4091 7.53802 14.8873 6.48802 11.9998 6.48802C11.3903 6.48557 10.7818 6.53575 10.181 6.63802C9.98493 6.66798 9.78489 6.62001 9.62371 6.50438C9.46252 6.38874 9.35299 6.21463 9.31852 6.01927C9.30244 5.922 9.30569 5.82252 9.32809 5.72651C9.35049 5.63049 9.3916 5.53984 9.44907 5.45973C9.50654 5.37963 9.57924 5.31163 9.66301 5.25965C9.74678 5.20766 9.83998 5.1727 9.93727 5.15677C10.6189 5.04321 11.3088 4.98676 11.9998 4.98802C15.2717 4.98802 18.2435 6.2349 20.5966 8.57865C22.3591 10.3505 23.156 12.113 23.1842 12.188C23.2257 12.2842 23.2471 12.3879 23.2471 12.4927C23.2471 12.5975 23.2257 12.7012 23.1842 12.7974ZM12.5623 9.54427C12.465 9.5258 12.3723 9.48836 12.2896 9.43408C12.2068 9.3798 12.1355 9.30974 12.0798 9.22791C11.9672 9.06264 11.925 8.85945 11.9623 8.66302C11.9996 8.4666 12.1134 8.29303 12.2786 8.18051C12.4439 8.06799 12.6471 8.02573 12.8435 8.06302C13.7999 8.25006 14.6703 8.7406 15.3257 9.46179C15.981 10.183 16.3862 11.0963 16.481 12.0661C16.4993 12.2637 16.4385 12.4605 16.312 12.6134C16.1855 12.7663 16.0035 12.8628 15.806 12.8818H15.731C15.5455 12.8825 15.3664 12.8135 15.2292 12.6885C15.0921 12.5635 15.0068 12.3916 14.9904 12.2068C14.9257 11.5609 14.6546 10.9531 14.2172 10.4735C13.7798 9.99389 13.1995 9.66804 12.5623 9.54427Z" fill="#ADADAD"/>
</svg>
