<svg width="24" height="24" viewBox="0 0 24 24" fill="none" xmlns="http://www.w3.org/2000/svg">
<path d="M11.9841 6C8.33067 6 4.58301 8.11453 1.6327 12.3436C1.54849 12.4656 1.50234 12.6099 1.50009 12.7582C1.49783 12.9064 1.53958 13.052 1.62004 13.1766C3.88692 16.725 7.58442 19.5 11.9841 19.5C16.336 19.5 20.1094 16.7166 22.3805 13.1602C22.4591 13.0381 22.5009 12.8959 22.5009 12.7507C22.5009 12.6055 22.4591 12.4634 22.3805 12.3412C20.1043 8.82562 16.3032 6 11.9841 6Z" stroke="#ADADAD" stroke-width="1.25" stroke-linecap="round" stroke-linejoin="round"/>
<path d="M12 16.5C14.0711 16.5 15.75 14.8211 15.75 12.75C15.75 10.6789 14.0711 9 12 9C9.92893 9 8.25 10.6789 8.25 12.75C8.25 14.8211 9.92893 16.5 12 16.5Z" stroke="#ADADAD" stroke-width="1.25" stroke-miterlimit="10"/>
</svg>
